<?xml version="1.0" encoding="utf-8"?>
<!-- Generator: Adobe Illustrator 18.1.1, SVG Export Plug-In . SVG Version: 6.00 Build 0)  -->
<svg version="1.1" id="Layer_1" xmlns="http://www.w3.org/2000/svg" xmlns:xlink="http://www.w3.org/1999/xlink" x="0px" y="0px"
	 viewBox="0 0 189.4 188.7" style="enable-background:new 0 0 189.4 188.7;" xml:space="preserve">
<style type="text/css">
	.st0{fill:#F7941E;}
	.st1{fill:#8DC63F;}
	.st2{fill:#27AAE1;}
</style>
<g>
	<path class="st0" d="M167.4,34.3c-0.6-0.7-1.2-1.4-1.8-2.1c-1.3-1.5-2.7-3-4.1-4.4c-0.7-0.7-1.4-1.4-2.1-2c-0.3-0.3-0.7-0.6-1-1
		c-0.6-0.6-1.2-1.1-1.8-1.6c-1-0.9-2-1.7-3-2.5l-0.2-0.1c-5.4-4.3-11.4-8.1-17.7-11.1C122.8,3.1,109,0,94.7,0c-2,0-4.1,0.1-6.1,0.2
		C41.3,3.1,3.5,41,0.5,88.3c-0.4,7.3-0.1,14.6,1.1,21.6c0.1,0.5,0.2,1,0.3,1.4c0.4,2.1,0.8,4.2,1.4,6.2c0.1,0.5,0.3,1,0.4,1.5
		c0.4,1.4,0.8,2.8,1.3,4.2c0.2,0.6,0.4,1.1,0.6,1.7c0.2,0.6,0.4,1.2,0.6,1.8c0.2,0.6,0.4,1.2,0.7,1.8c0.3,0.6,0.5,1.2,0.7,1.8
		c3.1,7.6,7.3,14.8,12.4,21.4l11.8-13.1c-9.3-13.1-14.2-28.4-14.2-44.6c0-33.1,21.2-62,51.3-72.7c-11.2,11.5-17.8,27-17.8,43.4
		c0,14.3,4.9,28,13.9,39.1l7.6-7.9C65.7,87.3,62,76.4,62,65.1c0-21.2,13.3-40.4,33.2-47.9c23.6,0.1,45.9,11.2,60.4,29.8l13.6-10.6
		C168.6,35.7,168,35,167.4,34.3z"/>
	<path class="st1" d="M189.1,89.8l-0.1,0.1v-0.1c0-0.9-0.1-1.7-0.2-2.6c0-0.6-0.1-1.1-0.1-1.7c0-0.4-0.1-0.8-0.1-1.2
		c-0.1-0.6-0.1-1.1-0.2-1.6c-0.1-0.8-0.2-1.5-0.3-2.2c-0.1-1.1-0.3-2.1-0.5-3.2c-0.1-0.6-0.2-1.2-0.3-1.8c-0.2-0.9-0.4-1.9-0.6-2.8
		c-0.6-2.5-1.3-5-2-7.4c-0.4-1.1-0.7-2.2-1.1-3.3c-0.3-0.9-0.6-1.7-1-2.6c-0.1-0.3-0.2-0.6-0.4-0.9c-0.3-0.9-0.7-1.7-1.1-2.6
		c-0.2-0.4-0.4-0.9-0.6-1.3c-1.1-2.4-2.3-4.7-3.6-7c-0.5-0.9-1.1-1.9-1.7-2.8c0-0.1-0.1-0.1-0.1-0.1c-0.3-0.6-0.7-1.1-1.1-1.7
		c-0.4-0.6-0.8-1.3-1.2-1.9c-0.4-0.5-0.7-1-1.1-1.5c-0.4-0.6-0.8-1.1-1.2-1.7l-0.1-0.1l-1.2-1.5l-1.3-1.8L155.6,47l-37.2,38.8
		l-12.1-12.1c-1.6-1.6-3.8-2.5-6.1-2.5c-2.2,0-4.5,0.9-6.1,2.6l-1,1.1L72.6,96.3c0,0,0,0,0,0l-7.6,7.9c0,0,0,0,0,0.1L31.8,139
		c0,0,0,0,0,0L20,152v0c0.1,0.2,0.3,0.3,0.4,0.5c0.2,0.2,0.4,0.4,0.6,0.7c0.3,0.4,0.6,0.7,0.9,1.1c0.7,0.9,1.4,1.7,2.2,2.6l0.1,0.1
		c0.7,0.8,1.5,1.7,2.3,2.5c0.5,0.6,1,1.1,1.6,1.6c0.9,0.9,1.8,1.8,2.7,2.6c0.5,0.5,1,0.9,1.5,1.3c1.4,1.3,2.9,2.5,4.4,3.7
		c0.8,0.6,1.7,1.3,2.5,1.9c0.8,0.6,1.7,1.2,2.6,1.8c0.1,0.1,0.2,0.1,0.3,0.2c0.7,0.5,1.4,1,2.1,1.4c0.4,0.3,0.7,0.5,1.1,0.7
		c0,0,0.1,0.1,0.1,0.1c0.8,0.5,1.5,0.9,2.3,1.4c1,0.6,2,1.1,3,1.6c0,0,0.1,0,0.1,0.1c0.8,0.4,1.7,0.8,2.5,1.3
		c1.2,0.6,2.4,1.1,3.5,1.6c1,0.5,2.1,0.9,3.1,1.3c0.8,0.3,1.6,0.6,2.4,0.9c0.1,0.1,0.3,0.1,0.4,0.1c0.4,0.2,0.8,0.3,1.3,0.4
		c0.8,0.3,1.6,0.6,2.4,0.8l0.3,0.1c9.1,2.9,18.6,4.3,28.2,4.3h79.4c2.9,0,5.7-0.8,8.1-2.4l0.5-0.3c4-2.8,6.3-7.3,6.3-12.2V94
		L189.1,89.8z M158.2,60.1l3.6-3.8c0.9,1.5,1.7,3.1,2.4,4.6c0,0,0,0.1,0,0.1c1.4,2.9,2.6,6,3.6,9c1.6,4.9,2.8,10,3.4,15.1
		c-0.8-0.3-1.5-0.7-2.1-1.2c-0.9-0.6-1.7-1.2-2.4-1.8l-0.3-0.3c-5.2-4.6-11.6-6.9-18.9-6.9c-1.3,0-2.6,0.1-3.9,0.2L158.2,60.1z
		 M100.3,83.1l4,4l25.1,25.1l0.2,0.2c-0.3,0.1-0.7,0.2-1.1,0.3c-1.3,0.4-2.8,0.8-4.3,1.1c-0.4,0.1-0.9,0.2-1.4,0.3
		c-0.8,0.1-1.6,0.2-2.4,0.3c-0.3,0-0.5,0-0.8,0.1c-0.4,0-0.9,0-1.4,0c-5.4,0-9.9-1.6-13.6-4.9l-0.2-0.2c-0.2-0.2-0.4-0.4-0.5-0.4
		c-0.1-0.1-0.3-0.2-0.4-0.3l-2.5-1.8l-0.5-0.3c-0.1-0.1-0.3-0.2-0.5-0.3c-0.7-0.4-1.3-0.8-2.1-1.1c-0.2-0.1-0.5-0.2-0.7-0.3
		l-0.4-0.2c-0.3-0.1-0.5-0.2-0.8-0.3l-0.8-0.3c-0.5-0.2-0.9-0.3-1.4-0.4c-0.4-0.1-0.9-0.2-1.3-0.3l-0.2-0.1c-0.5-0.1-1-0.2-1.5-0.3
		c-0.3-0.1-0.7-0.1-1-0.2c-1.4-0.2-2.8-0.3-4.3-0.3c-0.3,0-0.6,0-0.9,0c-0.5,0-0.9,0-1.3,0.1c-0.6,0-1.2,0.1-1.7,0.1L100.3,83.1z"/>
	<path class="st2" d="M189.1,106.6v67.2c0,4.9-2.4,9.4-6.3,12.2l-0.5,0.3c-2.4,1.6-5.2,2.4-8.1,2.4H94.7c-9.6,0-19.1-1.4-28.2-4.3
		l-0.3-0.1c-0.8-0.3-1.6-0.5-2.4-0.8c-0.4-0.1-0.8-0.3-1.3-0.4c-0.1,0-0.2-0.1-0.4-0.1c-0.8-0.3-1.6-0.6-2.4-0.9
		c-1.1-0.4-2.1-0.8-3.1-1.3c-1.2-0.5-2.4-1.1-3.5-1.6c-0.8-0.4-1.7-0.8-2.5-1.3c0,0-0.1,0-0.1-0.1c-1-0.5-2-1.1-3-1.6
		c-0.8-0.4-1.5-0.9-2.3-1.4c0,0-0.1,0-0.1-0.1c-0.4-0.2-0.8-0.4-1.1-0.7c-0.7-0.4-1.4-0.9-2.1-1.4c-0.1-0.1-0.2-0.1-0.3-0.2
		c-0.9-0.6-1.7-1.2-2.6-1.8c-0.8-0.6-1.7-1.3-2.5-1.9c-1.5-1.2-2.9-2.4-4.4-3.7c-0.5-0.4-1-0.9-1.5-1.3c-0.9-0.9-1.9-1.7-2.7-2.6
		c-0.6-0.5-1.1-1.1-1.6-1.6c-0.8-0.8-1.5-1.6-2.3-2.5l-0.1-0.1c-0.7-0.8-1.5-1.7-2.2-2.6c-0.3-0.4-0.6-0.7-0.9-1.1
		c25.4,0,59.9-2.9,98.6-15.1C148,129.1,171.2,117.4,189.1,106.6z"/>
</g>
</svg>
