<?xml version="1.0" encoding="utf-8"?>
<!-- Generator: Adobe Illustrator 18.1.1, SVG Export Plug-In . SVG Version: 6.00 Build 0)  -->
<svg version="1.1" id="Layer_1" xmlns="http://www.w3.org/2000/svg" xmlns:xlink="http://www.w3.org/1999/xlink" x="0px" y="0px"
	 viewBox="0 224 549 113" enable-background="new 0 224 549 113" xml:space="preserve">
<g>
	<path fill="#404041" d="M128.4,288.3c0-7.2-0.4-13.9-1.1-19.9c0-0.9,0.6-1.4,1.9-1.4c1.3,0,3,1.2,5.2,3.7s4.2,5.2,6.2,8.2
		c2,3,3.9,5.7,5.9,8.2c2,2.5,3.4,3.7,4.3,3.7c0.8,0,2.2-1.3,4.1-3.9c1.9-2.6,3.8-5.5,5.6-8.6c1.9-3.1,3.9-6,6-8.6
		c2.2-2.6,3.9-3.9,5.2-3.9c1.3,0,2,0.4,2,1.1c0.4,5.5,0.6,10.4,0.6,14.8c0,4.3,0,7.9-0.1,10.6c0,2.7-0.1,4.7-0.1,5.9
		c0,1.2-0.1,4-0.2,8.4c-0.1,4.4-0.2,6.9-0.2,7.7c-0.7,0.9-1.6,1.4-2.8,1.4c-0.5,0-1-0.1-1.4-0.4c-0.3-5.5-0.4-12-0.4-19.5
		c0-7.5,0.1-15.2,0.2-23.2c-0.9,0.7-2.2,2.4-3.8,5c-1.6,2.6-3.2,5.2-4.7,7.8c-1.5,2.6-3.2,4.9-5.2,7c-1.9,2.1-3.7,3.1-5.4,3.1
		c-1.7,0-3.5-1.2-5.7-3.6c-2.1-2.4-4.5-5.7-7-9.8c-2.6-4.1-4.3-6.7-5.1-7.7c0.2,3.8,0.3,7.7,0.3,11.7c0,4,0,6.9-0.1,8.5
		c0,7.2-0.2,13.7-0.4,19.5c-0.7,0.9-1.8,1.4-3.4,1.4c-0.4,0-0.8-0.1-1.1-0.2L128.4,288.3z"/>
	<path fill="#404041" d="M220.2,314.7c-0.7,1-1.7,1.5-3.1,1.5c-0.4,0-0.7,0-1.1-0.1c-1-2.2-1.7-5.4-2.2-9.5s-0.8-6.8-1-8.1
		c-4.9-0.2-9.8-0.3-14.6-0.3c-4.9,0-9.2,0.2-13.1,0.6c-0.4,1.8-0.8,4.6-1.3,8.2c-0.5,3.6-0.8,6.1-1,7.3c-1.6,1.3-3.1,1.5-4.4,0.5
		c0.1-1.1,0.3-2.8,0.6-5.1c0.3-2.3,0.5-4.3,0.7-5.9c0.2-1.6,0.5-3.7,0.9-6.2c0.4-2.5,0.8-4.7,1.2-6.5c0.4-1.8,0.9-3.8,1.6-6.1
		c0.7-2.3,1.4-4.2,2.1-5.8c0.7-1.6,1.6-3.2,2.6-4.9c1.1-1.7,2.2-3,3.4-4c2.8-2.3,5.8-3.4,9.1-3.4c3.3,0,6,1.3,8.2,3.8
		c2.2,2.5,3.8,5.8,4.9,9.9c1.1,4.1,2,8.2,2.7,12.3c0.7,4.1,1.3,8.3,1.9,12.6C218.9,309.7,219.5,312.8,220.2,314.7z M207.8,277.4
		c-0.9-2.2-2-3.9-3.3-5.1c-1.3-1.2-3-1.8-5-1.8c-2,0-3.9,1-5.7,2.9c-1.8,1.9-3.3,4.3-4.4,7.2c-1.9,5.3-3.1,10.2-3.6,14.8
		c4.5-0.5,9-0.7,13.5-0.7c4.5,0,8.9,0.1,13.1,0.4c-0.2-0.7-0.5-2.3-1-4.8c-0.5-2.5-1-4.7-1.5-6.6
		C209.3,281.7,208.6,279.6,207.8,277.4z"/>
	<path fill="#404041" d="M230,268.3l29.2-0.7c1.1,0,2,0.1,2.6,0.4c0.6,0.3,0.9,0.6,0.9,1c0,0.3-0.1,0.6-0.3,0.9
		c-5.2,7.7-12.5,17.4-21.9,29.1c-4.5,5.6-8,10-10.5,13.4c1.8,0.1,4.1,0.2,6.8,0.2l20.1-0.5c3,0,5.4,0.1,7.3,0.3
		c-0.3,2.3-2.3,3.4-6,3.4l-25.4,0.7c-5.9,0-8.9-0.7-8.9-2.2c0-0.4,0.2-0.8,0.5-1.3c3.3-4.9,8.6-11.8,15.9-20.5
		c7.3-8.8,12.7-15.8,16.2-21.1c-12.2,0.5-21.8,0.7-28.8,0.7c-1.9,0-2.9-0.5-2.9-1.6C225,269,226.6,268.3,230,268.3z"/>
	<path fill="#404041" d="M310,314.7c-0.7,1-1.7,1.5-3.1,1.5c-0.4,0-0.7,0-1.1-0.1c-1-2.2-1.7-5.4-2.2-9.5c-0.5-4.1-0.8-6.8-1-8.1
		c-4.9-0.2-9.8-0.3-14.6-0.3c-4.9,0-9.2,0.2-13.1,0.6c-0.4,1.8-0.8,4.6-1.3,8.2c-0.5,3.6-0.8,6.1-1,7.3c-1.6,1.3-3.1,1.5-4.4,0.5
		c0.1-1.1,0.3-2.8,0.6-5.1c0.3-2.3,0.5-4.3,0.7-5.9c0.2-1.6,0.5-3.7,0.9-6.2c0.4-2.5,0.8-4.7,1.2-6.5c0.4-1.8,0.9-3.8,1.6-6.1
		c0.7-2.3,1.4-4.2,2.1-5.8c0.7-1.6,1.6-3.2,2.6-4.9c1.1-1.7,2.2-3,3.4-4c2.8-2.3,5.8-3.4,9.1-3.4c3.3,0,6,1.3,8.2,3.8
		c2.2,2.5,3.8,5.8,4.9,9.9c1.1,4.1,2,8.2,2.7,12.3c0.7,4.1,1.3,8.3,1.9,12.6C308.7,309.7,309.3,312.8,310,314.7z M297.5,277.4
		c-0.9-2.2-2-3.9-3.3-5.1c-1.3-1.2-3-1.8-5-1.8c-2,0-3.9,1-5.7,2.9c-1.8,1.9-3.3,4.3-4.4,7.2c-1.9,5.3-3.1,10.2-3.6,14.8
		c4.5-0.5,9-0.7,13.5-0.7c4.5,0,8.9,0.1,13.1,0.4c-0.2-0.7-0.5-2.3-1-4.8c-0.5-2.5-1-4.7-1.5-6.6
		C299.1,281.7,298.4,279.6,297.5,277.4z"/>
	<path fill="#404041" d="M349.8,309.8l0.6-41.6c0.7-0.7,1.5-1.1,2.3-1.1c0.8,0,1.4,0.1,1.9,0.4c0.3,5.9,0.5,10.8,0.5,14.7l-0.5,31.1
		c0,0.9,0,1.7,0,2.5c-1.5,1-2.8,1.5-3.8,1.5l-0.8-0.1c-0.4-0.2-0.8-0.4-1-0.5c-0.2-0.1-0.6-0.4-1-0.9c-0.4-0.5-0.7-0.9-0.8-1.1
		c-0.1-0.2-0.4-0.7-0.9-1.5c-0.5-0.8-0.8-1.3-1-1.6c-0.2-0.3-1.4-2.3-3.8-6.1c-2.3-3.8-3.8-6.1-4.5-7.1c-0.6-0.9-2-2.9-4-6
		c-2-3-3.6-5.3-4.8-6.8c-3.4-4.4-6.6-7.9-9.5-10.6c0.2,5.9,0.3,12.1,0.3,18.8c0,6.7-0.1,13.8-0.4,21.3c-0.5,0.8-2,1.2-4.5,1.2
		c0-25.3-0.1-40.8-0.3-46.7c0.8-0.8,1.7-1.2,2.5-1.2s1.6,0.2,2.3,0.7c1.2,0.7,2.5,1.8,3.9,3.2c4.7,4.7,9.2,10.1,13.5,16.2
		S344.8,301.6,349.8,309.8z"/>
	<path fill="#404041" d="M364.8,267.8c-0.4,20.2-0.7,36-0.7,47.4c-0.7,0.7-1.3,1.1-1.8,1.1c-0.5,0-1-0.1-1.3-0.3
		c-1-0.7-1.5-1.9-1.5-3.8c0.1-21.5,0.2-34.1,0.5-37.8c0.2-3.7,0.6-5.8,1-6.4c0.4-0.6,1-0.9,1.6-0.9
		C363.1,267.1,363.9,267.3,364.8,267.8z"/>
	<path fill="#6D6E70" d="M404.9,273h-14.6v42h-5.6v-42h-14.6v-5h34.8V273z"/>
	<path fill="#6D6E70" d="M420.1,286.6c-1.3-0.4-2.6-0.7-3.8-0.7c-1.9,0-3.4,0.5-4.6,1.6c-1.1,1.1-1.8,2.4-2.1,4V315h-5.4v-33.5h3.8
		l1,4.1h0.3c0.8-1.5,1.9-2.7,3.1-3.5c1.2-0.8,2.7-1.2,4.5-1.2c1.3,0,2.8,0.2,4.4,0.7L420.1,286.6z"/>
	<path fill="#6D6E70" d="M426.6,283.9c1.7-1,3.7-1.8,5.9-2.3c2.3-0.5,4.6-0.7,7.1-0.7c2.3,0,4.2,0.3,5.6,0.9
		c1.4,0.6,2.5,1.4,3.2,2.4s1.2,2.1,1.5,3.3c0.2,1.2,0.4,2.4,0.4,3.6c0,2.7-0.1,5.3-0.2,7.8c-0.1,2.5-0.2,5-0.2,7.2
		c0,1.7,0.1,3.2,0.2,4.7c0.1,1.5,0.4,2.8,0.7,4.1h-4l-1.4-4.7h-0.3c-0.4,0.6-0.9,1.2-1.5,1.8c-0.6,0.6-1.3,1.1-2.2,1.6
		c-0.9,0.5-1.8,0.9-3,1.2c-1.1,0.3-2.4,0.5-3.8,0.5c-1.4,0-2.8-0.2-4-0.7c-1.2-0.4-2.3-1.1-3.2-1.9c-0.9-0.8-1.6-1.8-2.1-3
		c-0.5-1.2-0.8-2.5-0.8-4c0-2,0.4-3.6,1.2-4.9c0.8-1.3,1.9-2.4,3.4-3.2c1.5-0.8,3.2-1.3,5.2-1.7s4.3-0.5,6.7-0.5c0.6,0,1.2,0,1.8,0
		c0.6,0,1.2,0,1.8,0.1c0.1-1.3,0.2-2.5,0.2-3.6c0-2.5-0.5-4.2-1.5-5.2c-1-1-2.8-1.5-5.4-1.5c-0.8,0-1.6,0.1-2.4,0.2
		s-1.8,0.3-2.7,0.5c-0.9,0.2-1.8,0.5-2.6,0.8c-0.8,0.3-1.6,0.6-2.2,1L426.6,283.9z M436.1,310.8c1.3,0,2.4-0.2,3.4-0.5
		c1-0.3,1.8-0.8,2.5-1.3c0.7-0.5,1.3-1.1,1.8-1.7c0.5-0.6,0.8-1.2,1-1.8V300c-0.6,0-1.3-0.1-1.9-0.1c-0.6,0-1.3,0-1.9,0
		c-1.4,0-2.7,0.1-4.1,0.2c-1.3,0.2-2.5,0.4-3.5,0.9c-1,0.4-1.8,1-2.4,1.7c-0.6,0.7-0.9,1.7-0.9,2.8c0,1.6,0.6,2.9,1.7,3.9
		C432.9,310.3,434.3,310.8,436.1,310.8z"/>
	<path fill="#6D6E70" d="M470,301.1l1.9,6.4h0.1l1.7-6.5l7.5-19.5h5.8l-14.3,34.3h-2.3l-14.6-34.3h6.2L470,301.1z"/>
	<path fill="#6D6E70" d="M516.5,312.3c-1.3,1.1-3,1.9-5.1,2.5c-2,0.6-4.2,0.9-6.5,0.9c-2.5,0-4.8-0.4-6.6-1.2s-3.4-2-4.6-3.6
		c-1.2-1.5-2.1-3.4-2.7-5.5c-0.6-2.1-0.9-4.6-0.9-7.2c0-5.7,1.3-10.1,3.8-13.1c2.5-3,6.2-4.5,10.9-4.5c1.5,0,3,0.2,4.6,0.5
		c1.5,0.3,2.9,1,4.1,1.9c1.2,0.9,2.2,2.3,3,4c0.8,1.7,1.1,4,1.1,6.8c0,1.5-0.1,3.1-0.4,4.9h-21.5c0,2,0.2,3.7,0.6,5.2s1,2.8,1.9,3.9
		c0.8,1.1,2,1.9,3.3,2.4c1.4,0.6,3,0.8,5,0.8c1.5,0,3-0.3,4.6-0.8c1.5-0.5,2.7-1.2,3.4-1.9L516.5,312.3z M504.9,285.3
		c-2.6,0-4.8,0.7-6.3,2.1c-1.6,1.4-2.5,3.8-2.9,7.1h16.6c0-3.4-0.6-5.8-1.9-7.1C509.1,286,507.3,285.3,504.9,285.3z"/>
	<path fill="#6D6E70" d="M532,306.8c0,1.6,0.3,2.7,0.8,3.4s1.3,1,2.3,1c0.6,0,1.2,0,1.9-0.1c0.7-0.1,1.4-0.3,2.3-0.6l0.6,4.2
		c-0.7,0.4-1.7,0.6-3,0.9c-1.3,0.2-2.4,0.3-3.3,0.3c-2,0-3.7-0.6-5-1.7c-1.3-1.1-1.9-3.1-1.9-5.8V268h5.4V306.8z"/>
</g>
<g>
	<path fill="#F6921E" d="M97.9,245.9c-0.3-0.4-0.7-0.8-1-1.2c-0.8-0.9-1.5-1.7-2.3-2.5c-0.4-0.4-0.8-0.8-1.2-1.2
		c-0.2-0.2-0.4-0.4-0.6-0.5c-0.3-0.3-0.7-0.6-1-0.9c-0.6-0.5-1.1-1-1.7-1.4l-0.1-0.1c-3.1-2.5-6.5-4.6-10.1-6.3
		c-7.3-3.5-15.1-5.3-23.3-5.3c-1.1,0-2.3,0-3.4,0.1c-26.8,1.7-48.3,23.2-50,50c-0.3,4.2,0,8.3,0.6,12.3c0.1,0.3,0.1,0.5,0.1,0.8
		c0.2,1.2,0.5,2.4,0.8,3.5c0.1,0.3,0.1,0.6,0.2,0.9c0.2,0.8,0.5,1.6,0.7,2.4c0.1,0.3,0.2,0.6,0.3,1c0.1,0.3,0.2,0.7,0.4,1
		c0.1,0.3,0.3,0.7,0.4,1c0.1,0.3,0.3,0.7,0.4,1c1.8,4.3,4.2,8.4,7.1,12.2l6.7-7.4c-5.3-7.4-8.1-16.1-8.1-25.3
		c0-18.8,12-35.2,29.1-41.3c-6.4,6.5-10.1,15.3-10.1,24.6c0,8.1,2.8,15.9,7.9,22.2l4.3-4.5c-3.9-5.1-6-11.2-6-17.7
		c0-12.1,7.6-22.9,18.8-27.2c13.4,0.1,26.1,6.4,34.3,16.9l7.7-6C98.6,246.7,98.3,246.3,97.9,245.9z"/>
	<path fill="#8BC53F" d="M110.2,277.4L110.2,277.4L110.2,277.4c-0.1-0.5-0.1-1-0.2-1.5c0-0.3-0.1-0.6-0.1-0.9c0-0.2,0-0.4-0.1-0.7
		c0-0.3-0.1-0.6-0.1-0.9c-0.1-0.4-0.1-0.8-0.2-1.3c-0.1-0.6-0.2-1.2-0.3-1.8c-0.1-0.3-0.1-0.7-0.2-1c-0.1-0.5-0.2-1.1-0.3-1.6
		c-0.3-1.4-0.7-2.8-1.2-4.2c-0.2-0.6-0.4-1.3-0.6-1.9c-0.2-0.5-0.4-1-0.6-1.5c-0.1-0.2-0.1-0.3-0.2-0.5c-0.2-0.5-0.4-1-0.6-1.5
		c-0.1-0.3-0.2-0.5-0.3-0.7c-0.6-1.4-1.3-2.7-2.1-4c-0.3-0.5-0.6-1.1-0.9-1.6c0,0,0-0.1-0.1-0.1c-0.2-0.3-0.4-0.6-0.6-0.9
		c-0.2-0.4-0.5-0.7-0.7-1.1c-0.2-0.3-0.4-0.6-0.6-0.9c-0.2-0.3-0.4-0.6-0.7-0.9l0-0.1l-0.7-0.8l-0.7-1l-7,7l-21.1,22.1l-6.9-6.9
		c-0.9-0.9-2.1-1.4-3.4-1.4c-1.3,0-2.5,0.5-3.5,1.5l-0.6,0.6l-11.6,12.1c0,0,0,0,0,0l-4.3,4.5c0,0,0,0,0,0l-18.9,19.7c0,0,0,0,0,0
		l-6.7,7.4v0c0.1,0.1,0.2,0.2,0.2,0.3c0.1,0.1,0.2,0.3,0.3,0.4c0.2,0.2,0.3,0.4,0.5,0.6c0.4,0.5,0.8,1,1.2,1.4l0.1,0.1
		c0.4,0.5,0.8,0.9,1.3,1.4c0.3,0.3,0.6,0.6,0.9,0.9c0.5,0.5,1,1,1.6,1.5c0.3,0.3,0.6,0.5,0.8,0.8c0.8,0.7,1.6,1.4,2.5,2.1
		c0.5,0.4,1,0.7,1.4,1.1c0.5,0.4,1,0.7,1.4,1c0.1,0,0.1,0.1,0.2,0.1c0.4,0.3,0.8,0.5,1.2,0.8c0.2,0.1,0.4,0.3,0.6,0.4
		c0,0,0.1,0,0.1,0c0.4,0.3,0.9,0.5,1.3,0.8c0.6,0.3,1.1,0.6,1.7,0.9c0,0,0,0,0.1,0c0.5,0.2,0.9,0.5,1.4,0.7c0.7,0.3,1.3,0.6,2,0.9
		c0.6,0.3,1.2,0.5,1.8,0.7c0.4,0.2,0.9,0.4,1.4,0.5c0.1,0,0.1,0.1,0.2,0.1c0.2,0.1,0.5,0.2,0.7,0.2c0.4,0.2,0.9,0.3,1.4,0.5l0.2,0.1
		c5.2,1.6,10.6,2.4,16,2.4h45.1c1.7,0,3.2-0.5,4.6-1.4l0.3-0.2c2.2-1.6,3.6-4.2,3.6-6.9v-45.3L110.2,277.4z M92.7,260.5l2-2.1
		c0.5,0.9,0.9,1.8,1.4,2.6c0,0,0,0,0,0c0.8,1.7,1.5,3.4,2.1,5.1c0.9,2.8,1.6,5.7,1.9,8.6c-0.4-0.2-0.8-0.4-1.2-0.7
		c-0.5-0.3-0.9-0.7-1.3-1l-0.2-0.1c-3-2.6-6.6-3.9-10.7-3.9c-0.7,0-1.5,0-2.2,0.1L92.7,260.5z M59.8,273.6l2.3,2.3l14.2,14.3
		l0.1,0.1c-0.2,0.1-0.4,0.1-0.6,0.2c-0.8,0.2-1.6,0.4-2.4,0.6c-0.3,0.1-0.5,0.1-0.8,0.1c-0.4,0.1-0.9,0.1-1.4,0.2
		c-0.2,0-0.3,0-0.5,0c-0.3,0-0.5,0-0.8,0c-3,0-5.6-0.9-7.7-2.8l-0.1-0.1c-0.1-0.1-0.2-0.2-0.3-0.2c-0.1-0.1-0.2-0.1-0.2-0.2l-1.4-1
		l-0.3-0.2c-0.1-0.1-0.2-0.1-0.3-0.2c-0.4-0.2-0.8-0.4-1.2-0.6c-0.1-0.1-0.3-0.1-0.4-0.2l-0.3-0.1c-0.2-0.1-0.3-0.1-0.5-0.2
		l-0.4-0.2c-0.3-0.1-0.5-0.2-0.8-0.3c-0.2-0.1-0.5-0.1-0.7-0.2l-0.1,0c-0.3-0.1-0.6-0.1-0.9-0.2c-0.2-0.1-0.4-0.1-0.6-0.1
		c-0.8-0.1-1.6-0.2-2.4-0.2c-0.2,0-0.3,0-0.5,0c-0.3,0-0.5,0-0.7,0c-0.3,0-0.7,0.1-1,0.1L59.8,273.6z"/>
	<path fill="#26A9E0" d="M110.2,287v38.1c0,2.8-1.3,5.3-3.6,6.9l-0.3,0.2c-1.4,0.9-3,1.4-4.6,1.4H56.6c-5.4,0-10.8-0.8-16-2.4
		l-0.2-0.1c-0.5-0.1-0.9-0.3-1.4-0.5c-0.2-0.1-0.5-0.2-0.7-0.2c-0.1,0-0.1,0-0.2-0.1c-0.5-0.2-0.9-0.3-1.4-0.5
		c-0.6-0.2-1.2-0.5-1.8-0.7c-0.7-0.3-1.3-0.6-2-0.9c-0.5-0.2-0.9-0.5-1.4-0.7c0,0,0,0-0.1,0c-0.6-0.3-1.1-0.6-1.7-0.9
		c-0.4-0.2-0.9-0.5-1.3-0.8c0,0-0.1,0-0.1,0c-0.2-0.1-0.4-0.3-0.6-0.4c-0.4-0.3-0.8-0.5-1.2-0.8c-0.1,0-0.1-0.1-0.2-0.1
		c-0.5-0.3-1-0.7-1.4-1c-0.5-0.3-1-0.7-1.4-1.1c-0.8-0.7-1.7-1.4-2.5-2.1c-0.3-0.2-0.6-0.5-0.8-0.8c-0.5-0.5-1.1-1-1.6-1.5
		c-0.3-0.3-0.6-0.6-0.9-0.9c-0.4-0.4-0.9-0.9-1.3-1.4l-0.1-0.1c-0.4-0.5-0.8-1-1.2-1.4c-0.2-0.2-0.3-0.4-0.5-0.6
		c14.4,0,34-1.6,56-8.6C86.9,299.7,100.1,293.1,110.2,287z"/>
</g>
</svg>
