<?xml version="1.0" encoding="utf-8"?>
<!-- Generator: Adobe Illustrator 18.1.1, SVG Export Plug-In . SVG Version: 6.00 Build 0)  -->
<svg version="1.1" id="Layer_1" xmlns="http://www.w3.org/2000/svg" xmlns:xlink="http://www.w3.org/1999/xlink" x="0px" y="0px"
	 viewBox="0 0 313.2 61.5" style="enable-background:new 0 0 313.2 61.5;" xml:space="preserve">
<style type="text/css">
	.st0{fill:#414042;}
	.st1{fill:#F7941E;}
	.st2{fill:#8DC63F;}
	.st3{fill:#27AAE1;}
</style>
<g>
	<g>
		<g>
			<path class="st0" d="M90.5,44.6l0.6-5.6h-0.2l-1.7,4.5l-6,10.6h-1.8l-6.4-10.6L73.2,39H73l0.8,5.6v14.7h-5.3V31h5.1l7.6,13
				l1.3,3.2h0.2l1.2-3.3L91,31h5v28.3h-5.5V44.6z"/>
			<path class="st0" d="M115.5,53h-8.7l-2.1,6.3h-5.5l10.2-28.5h4.1l10.2,28.5h-5.8L115.5,53z M108.2,48.6h6.1l-2.1-6.3l-0.8-4.5
				h-0.2l-0.8,4.5L108.2,48.6z"/>
			<path class="st0" d="M126.3,54.4l12-16.8l2.1-1.7h-14.1V31h19.6v4.9l-12.1,16.9l-2.1,1.5h14.1v4.9h-19.6V54.4z"/>
			<path class="st0" d="M165,53h-8.7l-2.1,6.3h-5.5l10.2-28.5h4.1l10.2,28.5h-5.8L165,53z M157.7,48.6h6.1l-2.1-6.3l-0.8-4.5h-0.2
				l-0.8,4.5L157.7,48.6z"/>
			<path class="st0" d="M182.6,44.5l-2.2-4.5h-0.2l0.6,4.5v14.8h-5.3V30.8h4l10.7,15.1l2.1,4.3h0.2l-0.6-4.3V31h5.3v28.5h-4
				L182.6,44.5z"/>
			<path class="st0" d="M201.7,31h5.5v28.3h-5.5V31z"/>
		</g>
		<g>
			<path class="st0" d="M212,36.5h3.5v-4.4l3.6-1v5.5h6.1v3.1h-6.1V52c0,1.6,0.2,2.6,0.6,3.3c0.4,0.6,1,1,2,1c0.8,0,1.4-0.1,2-0.2
				s1.1-0.4,1.8-0.6l0.8,2.7c-0.8,0.4-1.7,0.7-2.6,0.9c-1,0.2-2,0.4-3.1,0.4c-1.8,0-3.1-0.5-3.8-1.5c-0.7-1-1.1-2.7-1.1-5.2V39.6
				H212V36.5z"/>
			<path class="st0" d="M240.7,39.9c-0.9-0.3-1.7-0.4-2.5-0.4c-1.3,0-2.3,0.4-3,1.1c-0.7,0.7-1.2,1.6-1.4,2.7v15.6h-3.6V36.5h2.5
				l0.7,2.7h0.2c0.6-1,1.2-1.8,2-2.3c0.8-0.6,1.8-0.8,3-0.8c0.9,0,1.8,0.1,2.9,0.4L240.7,39.9z"/>
			<path class="st0" d="M244.8,38.2c1.1-0.7,2.5-1.2,4-1.5c1.5-0.3,3.1-0.5,4.7-0.5c1.5,0,2.8,0.2,3.7,0.6c0.9,0.4,1.7,1,2.1,1.6
				c0.5,0.7,0.8,1.4,1,2.2c0.2,0.8,0.2,1.6,0.2,2.4c0,1.8,0,3.5-0.1,5.2c-0.1,1.7-0.1,3.3-0.1,4.8c0,1.1,0,2.1,0.1,3.1
				c0.1,1,0.3,1.9,0.5,2.7h-2.6l-0.9-3.1h-0.2c-0.3,0.4-0.6,0.8-1,1.2c-0.4,0.4-0.9,0.8-1.5,1.1c-0.6,0.3-1.2,0.6-2,0.8
				c-0.7,0.2-1.6,0.3-2.5,0.3c-1,0-1.8-0.1-2.7-0.4c-0.8-0.3-1.5-0.7-2.1-1.3c-0.6-0.6-1.1-1.2-1.4-2s-0.5-1.7-0.5-2.6
				c0-1.3,0.3-2.4,0.8-3.3c0.5-0.9,1.3-1.6,2.3-2.1c1-0.5,2.1-0.9,3.5-1.1c1.4-0.2,2.9-0.3,4.5-0.3c0.4,0,0.8,0,1.2,0
				c0.4,0,0.8,0,1.2,0.1c0.1-0.9,0.1-1.7,0.1-2.4c0-1.6-0.3-2.8-1-3.4c-0.7-0.7-1.8-1-3.6-1c-0.5,0-1.1,0-1.6,0.1
				c-0.6,0.1-1.2,0.2-1.8,0.3c-0.6,0.1-1.2,0.3-1.7,0.5c-0.6,0.2-1,0.4-1.5,0.7L244.8,38.2z M251.2,56.1c0.8,0,1.6-0.1,2.2-0.3
				c0.7-0.2,1.2-0.5,1.7-0.8c0.5-0.3,0.9-0.7,1.2-1.1c0.3-0.4,0.5-0.8,0.7-1.2v-3.7c-0.4,0-0.8-0.1-1.3-0.1c-0.4,0-0.9,0-1.3,0
				c-0.9,0-1.8,0.1-2.7,0.2c-0.9,0.1-1.7,0.3-2.3,0.6c-0.7,0.3-1.2,0.7-1.6,1.2c-0.4,0.5-0.6,1.1-0.6,1.9c0,1,0.4,1.9,1.1,2.6
				C249.1,55.8,250,56.1,251.2,56.1z"/>
			<path class="st0" d="M271.3,49.6l1.3,4.2h0l1.1-4.3l5-13h3.8L273,59.3h-1.5l-9.7-22.8h4.1L271.3,49.6z"/>
			<path class="st0" d="M300.4,57.1c-0.9,0.7-2,1.3-3.4,1.7c-1.4,0.4-2.8,0.6-4.3,0.6c-1.7,0-3.2-0.3-4.4-0.8
				c-1.3-0.6-2.3-1.3-3.1-2.4c-0.8-1-1.4-2.3-1.8-3.7s-0.6-3-0.6-4.8c0-3.8,0.8-6.7,2.5-8.7c1.7-2,4.1-3,7.3-3c1,0,2,0.1,3,0.3
				c1,0.2,1.9,0.6,2.7,1.3c0.8,0.6,1.5,1.5,2,2.7c0.5,1.1,0.8,2.7,0.8,4.5c0,1-0.1,2.1-0.3,3.3h-14.4c0,1.3,0.1,2.5,0.4,3.5
				c0.3,1,0.7,1.9,1.3,2.6c0.6,0.7,1.3,1.2,2.2,1.6c0.9,0.4,2,0.6,3.3,0.6c1,0,2-0.2,3-0.5c1-0.4,1.8-0.8,2.3-1.3L300.4,57.1z
				 M292.7,39.1c-1.8,0-3.2,0.5-4.2,1.4c-1.1,0.9-1.7,2.5-1.9,4.7h11.1c0-2.3-0.4-3.9-1.3-4.8C295.5,39.6,294.3,39.1,292.7,39.1z"/>
			<path class="st0" d="M312.8,55.8c-0.6,0.2-1.1,0.3-1.5,0.4c-0.4,0.1-0.9,0.1-1.3,0.1c-0.7,0-1.2-0.2-1.5-0.7
				c-0.4-0.4-0.5-1.2-0.5-2.2V30.9h-3.6v23.5c0,1.8,0.4,3.1,1.3,3.9s2,1.1,3.3,1.1c0.6,0,1.4-0.1,2.2-0.2c0.8-0.1,1.5-0.3,2-0.6
				L312.8,55.8z"/>
		</g>
	</g>
	<g>
		<path class="st1" d="M51.8,12.5c-0.2-0.2-0.4-0.4-0.5-0.6c-0.4-0.5-0.8-0.9-1.3-1.3c-0.2-0.2-0.4-0.4-0.6-0.6
			c-0.1-0.1-0.2-0.2-0.3-0.3c-0.2-0.2-0.4-0.3-0.6-0.5c-0.3-0.3-0.6-0.5-0.9-0.8l-0.1,0C45.9,7,44,5.8,42.1,4.9C38.2,3,34,2,29.6,2
			c-0.6,0-1.2,0-1.9,0.1C13.4,3,1.8,14.5,0.9,28.9c-0.1,2.2,0,4.4,0.3,6.6c0,0.1,0,0.3,0.1,0.4c0.1,0.6,0.3,1.3,0.4,1.9
			c0,0.2,0.1,0.3,0.1,0.5c0.1,0.4,0.2,0.9,0.4,1.3c0.1,0.2,0.1,0.3,0.2,0.5c0.1,0.2,0.1,0.4,0.2,0.6c0.1,0.2,0.1,0.4,0.2,0.6
			c0.1,0.2,0.1,0.4,0.2,0.6c1,2.3,2.2,4.5,3.8,6.5l3.6-4c-2.8-4-4.3-8.6-4.3-13.6c0-10.1,6.5-18.9,15.6-22.1
			c-3.4,3.5-5.4,8.2-5.4,13.2c0,4.4,1.5,8.5,4.2,11.9l2.3-2.4c-2.1-2.7-3.2-6-3.2-9.5c0-6.5,4.1-12.3,10.1-14.6
			c7.2,0,14,3.4,18.4,9.1l4.1-3.2C52.1,12.9,52,12.7,51.8,12.5z"/>
		<path class="st2" d="M58.4,29.4L58.4,29.4L58.4,29.4c0-0.3-0.1-0.5-0.1-0.8c0-0.2,0-0.3,0-0.5c0-0.1,0-0.2,0-0.4
			c0-0.2,0-0.3-0.1-0.5c0-0.2-0.1-0.5-0.1-0.7c0-0.3-0.1-0.6-0.2-1c0-0.2-0.1-0.4-0.1-0.5c-0.1-0.3-0.1-0.6-0.2-0.8
			c-0.2-0.8-0.4-1.5-0.6-2.2c-0.1-0.3-0.2-0.7-0.3-1c-0.1-0.3-0.2-0.5-0.3-0.8c0-0.1-0.1-0.2-0.1-0.3c-0.1-0.3-0.2-0.5-0.3-0.8
			c-0.1-0.1-0.1-0.3-0.2-0.4c-0.3-0.7-0.7-1.4-1.1-2.1c-0.2-0.3-0.3-0.6-0.5-0.9c0,0,0,0,0,0c-0.1-0.2-0.2-0.3-0.3-0.5
			c-0.1-0.2-0.2-0.4-0.4-0.6c-0.1-0.2-0.2-0.3-0.3-0.5c-0.1-0.2-0.2-0.3-0.4-0.5l0,0l-0.4-0.4l-0.4-0.5l-3.8,3.8L36.9,28.2l-3.7-3.7
			c-0.5-0.5-1.1-0.8-1.9-0.8c-0.7,0-1.4,0.3-1.9,0.8l-0.3,0.3l-6.2,6.5c0,0,0,0,0,0l-2.3,2.4c0,0,0,0,0,0L10.5,44.4c0,0,0,0,0,0
			l-3.6,4v0c0,0,0.1,0.1,0.1,0.2c0.1,0.1,0.1,0.1,0.2,0.2c0.1,0.1,0.2,0.2,0.3,0.3c0.2,0.3,0.4,0.5,0.7,0.8l0,0
			c0.2,0.3,0.5,0.5,0.7,0.8c0.2,0.2,0.3,0.3,0.5,0.5c0.3,0.3,0.5,0.5,0.8,0.8c0.1,0.1,0.3,0.3,0.5,0.4c0.4,0.4,0.9,0.8,1.3,1.1
			c0.3,0.2,0.5,0.4,0.8,0.6c0.3,0.2,0.5,0.4,0.8,0.6c0,0,0.1,0,0.1,0.1c0.2,0.1,0.4,0.3,0.7,0.4c0.1,0.1,0.2,0.1,0.3,0.2
			c0,0,0,0,0,0c0.2,0.1,0.5,0.3,0.7,0.4c0.3,0.2,0.6,0.3,0.9,0.5c0,0,0,0,0,0c0.3,0.1,0.5,0.3,0.8,0.4c0.4,0.2,0.7,0.3,1.1,0.5
			c0.3,0.1,0.6,0.3,1,0.4c0.2,0.1,0.5,0.2,0.7,0.3c0,0,0.1,0,0.1,0c0.1,0,0.3,0.1,0.4,0.1c0.2,0.1,0.5,0.2,0.7,0.2l0.1,0
			c2.8,0.9,5.7,1.3,8.6,1.3h24.2c0.9,0,1.7-0.3,2.5-0.7l0.1-0.1c1.2-0.8,1.9-2.2,1.9-3.7V30.7L58.4,29.4z M49,20.3l1.1-1.1
			c0.3,0.5,0.5,0.9,0.7,1.4c0,0,0,0,0,0c0.4,0.9,0.8,1.8,1.1,2.8c0.5,1.5,0.8,3,1,4.6c-0.2-0.1-0.4-0.2-0.7-0.4
			c-0.3-0.2-0.5-0.4-0.7-0.6L51.5,27c-1.6-1.4-3.5-2.1-5.8-2.1c-0.4,0-0.8,0-1.2,0.1L49,20.3z M31.3,27.3l1.2,1.2l7.6,7.6l0.1,0.1
			c-0.1,0-0.2,0.1-0.3,0.1c-0.4,0.1-0.8,0.2-1.3,0.3c-0.1,0-0.3,0.1-0.4,0.1c-0.2,0-0.5,0.1-0.7,0.1c-0.1,0-0.2,0-0.2,0
			c-0.1,0-0.3,0-0.4,0c-1.6,0-3-0.5-4.1-1.5l-0.1,0c-0.1-0.1-0.1-0.1-0.2-0.1c0,0-0.1-0.1-0.1-0.1l-0.8-0.5l-0.1-0.1
			c0,0-0.1-0.1-0.1-0.1c-0.2-0.1-0.4-0.2-0.6-0.3c-0.1,0-0.1-0.1-0.2-0.1l-0.1-0.1c-0.1,0-0.2-0.1-0.2-0.1l-0.2-0.1
			c-0.1,0-0.3-0.1-0.4-0.1c-0.1,0-0.3-0.1-0.4-0.1l-0.1,0c-0.2,0-0.3-0.1-0.5-0.1c-0.1,0-0.2,0-0.3,0c-0.4-0.1-0.9-0.1-1.3-0.1
			c-0.1,0-0.2,0-0.3,0c-0.1,0-0.3,0-0.4,0c-0.2,0-0.4,0-0.5,0L31.3,27.3z"/>
		<path class="st3" d="M58.4,34.5V55c0,1.5-0.7,2.9-1.9,3.7l-0.1,0.1c-0.7,0.5-1.6,0.7-2.5,0.7H29.6c-2.9,0-5.8-0.4-8.6-1.3l-0.1,0
			c-0.2-0.1-0.5-0.2-0.7-0.2c-0.1,0-0.3-0.1-0.4-0.1c0,0-0.1,0-0.1,0c-0.2-0.1-0.5-0.2-0.7-0.3c-0.3-0.1-0.6-0.3-1-0.4
			c-0.4-0.2-0.7-0.3-1.1-0.5c-0.3-0.1-0.5-0.3-0.8-0.4c0,0,0,0,0,0c-0.3-0.2-0.6-0.3-0.9-0.5c-0.2-0.1-0.5-0.3-0.7-0.4c0,0,0,0,0,0
			c-0.1-0.1-0.2-0.1-0.3-0.2c-0.2-0.1-0.4-0.3-0.7-0.4c0,0-0.1,0-0.1-0.1c-0.3-0.2-0.5-0.4-0.8-0.6c-0.3-0.2-0.5-0.4-0.8-0.6
			c-0.5-0.4-0.9-0.7-1.3-1.1c-0.2-0.1-0.3-0.3-0.5-0.4c-0.3-0.3-0.6-0.5-0.8-0.8c-0.2-0.2-0.3-0.3-0.5-0.5c-0.2-0.2-0.5-0.5-0.7-0.8
			l0,0c-0.2-0.3-0.4-0.5-0.7-0.8c-0.1-0.1-0.2-0.2-0.3-0.3c7.7,0,18.3-0.9,30-4.6C45.8,41.4,52.9,37.8,58.4,34.5z"/>
	</g>
</g>
</svg>
